<?xml version="1.0" standalone="no"?>
<!DOCTYPE svg PUBLIC "-//W3C//DTD SVG 20010904//EN"
 "http://www.w3.org/TR/2001/REC-SVG-20010904/DTD/svg10.dtd">
<svg version="1.0" xmlns="http://www.w3.org/2000/svg"
 width="1019.000000pt" height="887.000000pt" viewBox="0 0 1019.000000 887.000000"
 preserveAspectRatio="xMidYMid meet">

<g transform="translate(0.000000,887.000000) scale(0.100000,-0.100000)"
fill="#000000" stroke="none">
<path d="M7040 4910 c-67 -14 -214 -91 -310 -163 -203 -152 -558 -497 -764
-742 -307 -366 -450 -517 -579 -609 -131 -94 -239 -122 -354 -92 -169 43 -340
171 -720 540 -106 103 -194 186 -197 184 -3 -2 -71 76 -151 172 -382 457 -551
616 -723 680 -203 77 -405 -7 -737 -305 -159 -144 -465 -446 -465 -461 0 -15
-431 -438 -566 -555 -308 -268 -486 -335 -669 -254 -159 70 -335 241 -699 678
-54 64 -100 117 -102 117 -2 0 -4 -15 -4 -34 0 -22 9 -45 26 -65 l25 -30 -10
-1883 c-6 -1036 -11 -1929 -11 -1985 l0 -103 5075 0 5075 0 2 338 c1 185 1
351 0 367 -1 17 -6 786 -12 1709 -10 1510 -9 1681 5 1688 10 6 15 24 15 58 0
28 -3 50 -7 50 -18 0 -89 -75 -209 -220 -419 -505 -606 -667 -792 -686 -188
-20 -384 109 -837 548 -104 102 -193 185 -197 184 -4 -1 -73 78 -153 174 -382
456 -550 615 -723 681 -64 24 -165 32 -232 19z"/>
</g>
</svg>
