<?xml version="1.0" standalone="no"?>
<!DOCTYPE svg PUBLIC "-//W3C//DTD SVG 20010904//EN"
 "http://www.w3.org/TR/2001/REC-SVG-20010904/DTD/svg10.dtd">
<svg version="1.0" xmlns="http://www.w3.org/2000/svg"
 width="1019.000000pt" height="887.000000pt" viewBox="0 0 1019.000000 887.000000"
 preserveAspectRatio="xMidYMid meet">

<g transform="translate(0.000000,887.000000) scale(0.100000,-0.100000)"
fill="#000000" stroke="none">
<path d="M7040 4910 c-67 -14 -214 -91 -310 -163 -203 -152 -558 -497 -764
-742 -307 -366 -450 -517 -579 -609 -131 -94 -239 -122 -354 -92 -169 43 -340
171 -720 540 -106 103 -194 186 -197 184 -3 -2 -71 76 -151 172 -382 457 -551
616 -723 680 -203 77 -405 -7 -737 -305 -159 -144 -465 -446 -465 -461 0 -15
-431 -438 -566 -555 -308 -268 -486 -335 -669 -254 -160 70 -337 242 -701 679
-96 117 -99 119 -102 88 -2 -17 0 -38 5 -46 25 -44 338 -401 453 -517 286
-289 463 -347 705 -230 158 76 327 216 672 555 112 109 203 205 203 211 0 16
400 408 537 527 306 267 485 334 668 253 163 -72 343 -248 725 -708 85 -103
119 -137 132 -134 10 3 18 0 18 -7 0 -15 241 -253 405 -400 150 -135 263 -218
370 -272 186 -92 318 -83 497 35 136 89 287 245 588 606 231 276 596 630 805
780 346 248 530 189 964 -305 75 -85 188 -217 251 -293 85 -103 119 -137 132
-134 10 3 18 0 18 -7 0 -15 241 -253 405 -400 150 -135 263 -218 370 -272 186
-92 318 -83 497 35 133 88 280 238 571 585 124 148 157 193 157 217 0 16 -4
29 -9 29 -4 0 -59 -62 -122 -137 -177 -214 -379 -441 -461 -519 -196 -186
-345 -249 -495 -210 -169 43 -340 171 -718 538 -104 102 -193 185 -197 184 -4
-1 -73 78 -153 174 -382 456 -550 615 -723 681 -64 24 -165 32 -232 19z"/>
<path d="M2233 1779 c-7 -7 -13 -29 -13 -48 0 -32 1 -34 16 -20 9 10 14 29 12
48 -2 26 -5 30 -15 20z"/>
</g>
</svg>
