<?xml version="1.0" standalone="no"?>
<!DOCTYPE svg PUBLIC "-//W3C//DTD SVG 20010904//EN"
 "http://www.w3.org/TR/2001/REC-SVG-20010904/DTD/svg10.dtd">
<svg version="1.0" xmlns="http://www.w3.org/2000/svg"
 width="1280.000000pt" height="1238.000000pt" viewBox="0 0 1280.000000 1238.000000"
 preserveAspectRatio="xMidYMid meet">
<metadata>
Created by potrace 1.15, written by Peter Selinger 2001-2017
</metadata>
<g transform="translate(0.000000,1238.000000) scale(0.100000,-0.100000)"
fill="#000000" stroke="none">
<path d="M5740 12373 c-440 -44 -551 -64 -992 -174 -961 -239 -1211 -336
-1958 -757 -570 -321 -1019 -689 -1435 -1176 -331 -387 -526 -705 -768 -1251
-281 -636 -419 -1183 -544 -2150 -36 -279 -37 -301 -37 -595 0 -337 7 -423 74
-910 22 -157 52 -368 66 -470 67 -487 212 -986 423 -1465 195 -439 520 -983
710 -1186 48 -52 183 -204 301 -339 227 -261 450 -491 565 -582 39 -30 108
-79 155 -108 47 -29 184 -117 305 -195 281 -181 361 -228 575 -337 96 -49 225
-115 285 -148 412 -223 1000 -381 1845 -494 483 -66 1237 -39 1855 65 507 85
1274 284 1735 452 518 187 1085 482 1425 741 435 331 911 859 1294 1434 373
561 701 1226 895 1816 171 518 272 1091 283 1591 11 499 -60 921 -247 1485
-80 242 -161 460 -170 460 -3 0 -5 -237 -5 -528 0 -345 -4 -580 -13 -682 -63
-751 -162 -1294 -337 -1849 -175 -554 -485 -1197 -784 -1626 -229 -329 -645
-808 -909 -1049 -397 -361 -1111 -855 -1562 -1081 -689 -345 -1449 -567 -2105
-615 -277 -20 -675 -10 -1065 26 -206 19 -637 70 -751 90 -257 43 -514 145
-867 342 -97 55 -224 125 -282 157 -126 69 -195 119 -400 289 -177 148 -267
215 -407 303 -316 198 -703 621 -1219 1330 -272 374 -464 802 -653 1458 -131
453 -232 1061 -247 1480 -19 534 119 1280 376 2030 78 227 123 333 216 513
232 445 550 872 915 1227 393 382 1089 846 1694 1128 658 307 1417 508 2105
557 777 54 1582 -130 2439 -559 229 -115 342 -180 531 -306 222 -149 373 -269
543 -435 465 -451 748 -944 903 -1575 38 -153 113 -596 141 -825 24 -205 24
-660 -1 -860 -51 -415 -91 -650 -156 -910 -204 -817 -545 -1445 -1143 -2101
-312 -342 -739 -658 -1232 -910 -298 -152 -485 -226 -750 -294 -338 -87 -678
-111 -1165 -85 -521 28 -919 107 -1345 267 -241 91 -618 289 -893 470 -424
279 -699 661 -937 1299 -154 413 -208 704 -209 1129 -1 381 46 732 144 1070
185 638 454 1093 891 1510 277 264 463 398 755 548 208 105 366 174 510 220
155 50 215 63 429 88 253 31 711 34 905 6 308 -44 499 -101 684 -204 635 -350
1015 -714 1252 -1198 111 -228 165 -409 226 -760 29 -169 32 -529 5 -693 -71
-436 -203 -771 -415 -1057 -82 -112 -275 -310 -406 -418 -245 -204 -520 -348
-776 -407 -25 -5 -129 -15 -233 -22 -715 -46 -1262 198 -1674 746 -103 138
-156 232 -211 374 -76 200 -102 322 -109 512 -4 126 -2 191 11 278 53 355 229
709 489 979 150 156 252 227 524 370 l145 76 -33 14 c-104 44 -326 59 -479 33
-41 -7 -135 -32 -208 -56 -380 -124 -769 -397 -952 -669 -222 -329 -315 -604
-327 -970 -12 -348 48 -606 226 -970 119 -241 221 -376 463 -610 212 -206 402
-342 633 -455 158 -78 283 -122 512 -179 230 -58 318 -72 503 -78 427 -15 872
80 1362 288 183 78 212 93 402 207 484 291 706 538 966 1075 97 200 165 383
235 626 115 401 139 552 139 856 -1 186 -5 258 -23 375 -45 296 -144 669 -233
880 -265 627 -686 1075 -1313 1396 -446 229 -906 361 -1555 448 -721 97 -1133
72 -1675 -101 -463 -148 -896 -416 -1266 -783 -437 -435 -772 -954 -1035
-1604 -83 -205 -199 -648 -255 -971 -52 -301 -59 -488 -34 -860 35 -520 63
-720 131 -944 58 -191 360 -857 475 -1049 81 -133 125 -187 380 -473 306 -342
397 -426 591 -548 54 -33 142 -93 195 -134 488 -368 1082 -627 1748 -762 835
-169 1562 -116 2475 181 560 181 943 396 1470 823 518 419 851 804 1210 1396
271 448 469 913 575 1348 41 167 117 589 145 802 73 557 76 973 9 1365 -188
1105 -635 2048 -1321 2784 -216 231 -784 728 -999 874 -67 45 -533 299 -739
403 -405 204 -701 305 -1070 369 -69 12 -205 37 -302 56 -196 38 -423 68 -627
84 -124 9 -529 12 -611 3z"/>
</g>
</svg>
